<?xml version="1.0" standalone="no"?>
<!DOCTYPE svg PUBLIC "-//W3C//DTD SVG 20010904//EN"
 "http://www.w3.org/TR/2001/REC-SVG-20010904/DTD/svg10.dtd">
<svg version="1.0" xmlns="http://www.w3.org/2000/svg"
 width="700.000000pt" height="700.000000pt" viewBox="0 0 700.000000 700.000000"
 preserveAspectRatio="xMidYMid meet">
<metadata>
Created by potrace 1.11, written by Peter Selinger 2001-2013
</metadata>
<g transform="translate(0.000000,700.000000) scale(0.100000,-0.100000)"
fill="#000000" stroke="none">
<path d="M2246 6414 c-115 -36 -210 -137 -230 -245 -3 -13 -5 -373 -5 -800
l-1 -776 -563 0 c-309 0 -580 -3 -602 -7 -86 -16 -184 -90 -222 -168 -16 -32
-139 -491 -168 -628 -2 -8 -56 -222 -120 -475 l-118 -460 2 -1165 c0 -641 4
-1183 7 -1205 20 -123 132 -236 258 -259 51 -10 6003 -10 6041 0 37 9 100 40
138 68 41 30 95 116 107 172 8 34 11 402 11 1205 1 995 -2 1163 -14 1200 -8
24 -17 58 -20 74 -3 17 -13 57 -22 90 -9 33 -18 71 -20 85 -2 14 -9 39 -15 55
-6 17 -11 31 -10 33 2 4 -10 63 -21 97 -5 17 -20 80 -35 140 -14 61 -41 173
-60 250 -20 77 -38 151 -40 165 -3 14 -7 32 -10 40 -3 8 -8 24 -10 35 -24 123
-110 442 -129 482 -41 83 -131 152 -220 169 -21 4 -292 7 -602 7 l-563 0 0
783 c0 760 -1 785 -20 837 -23 62 -77 128 -130 162 -91 57 -37 55 -1344 54
-1037 0 -1208 -2 -1250 -15z"/>
</g>
</svg>
