<svg
    xmlns:svg="http://www.w3.org/2000/svg"
    xmlns="http://www.w3.org/2000/svg"
    version="1.1"
    width="24.043127"
    height="28"
    viewBox="0 0 24.043127 28"
    id="svg4">
    <rect
        style="opacity:0.999;fill:#ffffff;stroke-width:0;stroke-linecap:round;stroke-linejoin:bevel;paint-order:stroke fill markers"
        id="rect1413"
        width="16.506554"
        height="6.6531281"
        x="3.4602416"
        y="1.3563187" />
    <rect
        style="opacity:0.999;fill:#ffffff;stroke-width:0;stroke-linecap:round;stroke-linejoin:bevel;paint-order:stroke fill markers"
        id="rect1411"
        width="24.024271"
        height="18.981768"
        x="0.018856702"
        y="4.0788479" />
    <path
        d="M 12,28 C 5.374,28 0,26.207 0,24 c 0,-1.207 0,-2.527 0,-4 0,-0.348 0.174,-0.678 0.424,-1 1.338,1.723 5.99,3 11.576,3 5.586,0 10.238,-1.277 11.576,-3 0.25,0.322 0.424,0.652 0.424,1 0,1.158 0,2.387 0,4 0,2.207 -5.375,4 -12,4 z m 0,-8 C 5.374,20 0,18.207 0,16 0,14.792 0,13.474 0,12 0,11.788 0.08,11.582 0.188,11.378 v 0 C 0.249,11.25 0.329,11.124 0.424,11 c 1.338,1.722 5.99,3 11.576,3 5.586,0 10.238,-1.278 11.576,-3 0.096,0.124 0.176,0.25 0.236,0.378 v 0 C 23.919,11.582 24,11.788 24,12 c 0,1.158 0,2.386 0,4 0,2.207 -5.375,4 -12,4 z m 0,-8 C 5.374,12 0,10.208 0,8 0,7.368 0,6.7 0,6 0,5.364 0,4.704 0,4 0,1.792 5.374,0 12,0 c 6.626,0 12,1.792 12,4 0,0.624 0,1.286 0,2 0,0.612 0,1.258 0,2 0,2.208 -5.375,4 -12,4 z M 12,2 C 7.582,2 4,2.894 4,4 4,5.106 7.582,6 12,6 16.418,6 20,5.106 20,4 20,2.894 16.418,2 12,2 Z"
        id="path2" />
</svg>
