<svg
   xmlns:svg="http://www.w3.org/2000/svg"
   xmlns="http://www.w3.org/2000/svg"
   version="1.1"
   viewBox="0 0 430 490"
   id="svg14"
   width="430"
   height="490">
  <rect
     style="opacity:0.999;fill:#fff;stroke-width:0;stroke-linecap:round;stroke-linejoin:bevel;paint-order:stroke fill markers;fill-opacity:1"
     id="rect1406"
     width="321.51016"
     height="464.76703"
     x="54.687653"
     y="14.366446" />
  <path
     d="M 415,460 H 390.002 V 15 c 0,-8.284 -6.716,-15 -15,-15 H 55 C 46.716,0 40,6.716 40,15 V 460 H 15 c -8.284,0 -15,6.716 -15,15 0,8.284 6.716,15 15,15 h 400 c 8.284,0 15,-6.716 15,-15 0,-8.284 -6.716,-15 -15,-15 z m -54.998,0 H 70 V 30 h 290.002 z m -245,-160 H 315 c 8.284,0 15,-6.716 15,-15 V 75 c 0,-8.284 -6.716,-15 -15,-15 H 115.002 c -8.284,0 -15,6.716 -15,15 v 210 c 0,8.284 6.716,15 15,15 z m 15,-210 H 300 v 40 H 130.002 Z m 0,70 H 300 v 40 H 130.002 Z m 0,70 H 300 v 40 H 130.002 Z M 215,337.497 c -24.813,0 -44.999,20.188 -44.999,45.004 0,24.813 20.188,45.001 45.001,45.001 24.813,0 44.999,-20.188 44.999,-45.004 0,-24.813 -20.188,-45.001 -45.001,-45.001 z m 0,60.005 c -8.271,0 -14.999,-6.729 -14.999,-15.004 0,-8.271 6.729,-15.001 14.999,-15.001 h 0.002 c 8.271,0 14.999,6.729 14.999,15.004 0,8.271 -6.73,15.001 -15.001,15.001 z"
     id="path12" />
</svg>
